<?xml version="1.0" encoding="UTF-8"?>
<svg width="1400px" height="200px" viewBox="0 0 1400 200" version="1.1" xmlns="http://www.w3.org/2000/svg" xmlns:xlink="http://www.w3.org/1999/xlink">
    <!-- Generator: Sketch 48.2 (47327) - http://www.bohemiancoding.com/sketch -->
    <title>images/waves</title>
    <desc>Created with Sketch.</desc>
    <defs></defs>
    <g id="Page-1" stroke="none" stroke-width="1" fill="none" fill-rule="evenodd">
        <g id="images/waves" fill="#000000">
            <path d="M-49.0625,54.4058114 C41.6171875,43.7691165 106.539062,33.1324217 189.695313,43.7691165 C272.851562,54.4058114 362.554688,47.9561446 402.617188,43.7691165 C442.679688,39.5820884 453.875,54.4058114 529.453125,54.4058114 C605.03125,54.4058114 624.164063,26.0597649 731.695313,31.9151068 C839.226563,37.7704487 779.0625,57.906786 872.328125,50.8379513 C965.59375,43.7691165 964.046875,31.9151068 1032.74219,31.9151068 C1101.4375,31.9151068 1132.52344,54.4058114 1192.73438,54.4058114 C1252.94531,54.4058114 1278.00781,37.6099237 1341.53906,37.6099237 C1383.89323,37.6099237 1417.75781,39.6629879 1443.13281,43.7691165 L1426.96094,240.523438 L-49.0625,308.054688 C-109.515625,146.046567 -109.515625,61.4969412 -49.0625,54.4058114 Z" id="Path-5"></path>
        </g>
    </g>
</svg>