<?xml version="1.0" encoding="UTF-8"?>
<svg width="1539px" height="281px" viewBox="0 0 1539 281" version="1.1" xmlns="http://www.w3.org/2000/svg" xmlns:xlink="http://www.w3.org/1999/xlink">
    <!-- Generator: Sketch 48.2 (47327) - http://www.bohemiancoding.com/sketch -->
    <title>waves2</title>
    <desc>Created with Sketch.</desc>
    <defs></defs>
    <g id="Page-1" stroke="none" stroke-width="1" fill="none" fill-rule="evenodd">
        <g id="waves2" fill="#000000" fill-rule="nonzero">
            <g id="wave-01-copy" transform="translate(834.000000, 33.500000) scale(-1, -1) translate(-834.000000, -33.500000) translate(-28.000000, -114.000000)">
                <path d="M0,71.1 C82.4,31.1 202.5,-11.4 354.1,9.4 C404.6,16.3 453.4,38.6 504.2,34 C561.4,28.8 625.8,-0.5 683.3,2 C746.7,4.7 780.7,23.3 843.8,29.7 C917.1,37.1 989.1,15 1062.2,6.9 C1137.8,-1.4 1207.4,16 1280.6,24 C1354.9,32.1 1432.7,5.7 1507.3,1.3 C1581.9,-3.1 1659.1,8 1723.1,44.6 L1713.9,294.5 L77.1,242.5 L0,71.1 Z" id="Shape"></path>
            </g>
        </g>
    </g>
</svg>