<?xml version="1.0" encoding="UTF-8"?>
<svg width="1539px" height="281px" viewBox="0 0 1539 281" version="1.1" xmlns="http://www.w3.org/2000/svg" xmlns:xlink="http://www.w3.org/1999/xlink">
    <!-- Generator: Sketch 48.2 (47327) - http://www.bohemiancoding.com/sketch -->
    <title>waves2</title>
    <desc>Created with Sketch.</desc>
    <defs></defs>
    <g id="Page-1" stroke="none" stroke-width="1" fill="none" fill-rule="evenodd">
        <g id="waves2" fill="#000000">
            <path d="M-49,88.02 C32.126,45.452 129.036,30.241 220.426,45.731 C270.636,54.242 320.629,71.745 371.216,65.525 C428.247,58.512 479.158,21.869 536.669,22.484 C600.083,23.162 647.224,46.065 710.474,50.406 C783.993,55.452 855.547,27.219 927.856,13.719 C1000.114,0.23 1073.538,25.228 1146.959,30.847 C1221.456,36.548 1295.801,22.189 1370.197,15.412 C1444.592,8.635 1523.52,10.338 1588.652,44.886 L1588.652,287.486 L-49,287.486 L-49,88.02 Z" id="wave" transform="translate(769.825000, 142.743000) scale(1, -1) translate(-769.825000, -142.743000) "></path>
        </g>
    </g>
</svg>