<?xml version="1.0" encoding="UTF-8"?>
<svg width="1400px" height="200px" viewBox="0 0 1400 200" version="1.1" xmlns="http://www.w3.org/2000/svg" xmlns:xlink="http://www.w3.org/1999/xlink">
    <!-- Generator: Sketch 48.2 (47327) - http://www.bohemiancoding.com/sketch -->
    <title>images/waves2</title>
    <desc>Created with Sketch.</desc>
    <defs></defs>
    <g id="Page-1" stroke="none" stroke-width="1" fill="none" fill-rule="evenodd">
        <g id="images/waves2" fill="#000000">
            <path d="M-52.6601562,-114.712736 C38.0195313,-125.349431 102.941406,-135.986126 186.097656,-125.349431 C269.253906,-114.712736 358.957031,-121.162403 399.019531,-125.349431 C439.082031,-129.536459 450.277344,-114.712736 525.855469,-114.712736 C601.433594,-114.712736 620.566406,-143.058782 728.097656,-137.20344 C835.628906,-131.348099 775.464844,-111.211761 868.730469,-118.280596 C961.996094,-125.349431 960.449219,-137.20344 1029.14453,-137.20344 C1097.83984,-137.20344 1128.92578,-114.712736 1189.13672,-114.712736 C1249.34766,-114.712736 1274.41016,-131.508624 1337.94141,-131.508624 C1380.29557,-131.508624 1414.16016,-129.455559 1439.53516,-125.349431 L1423.36328,71.4048903 L-52.6601562,138.93614 C-113.113281,-23.0719806 -113.113281,-107.621606 -52.6601562,-114.712736 Z" id="Path-5" transform="translate(670.767578, 0.468070) scale(1, -1) translate(-670.767578, -0.468070) "></path>
        </g>
    </g>
</svg>